<svg width="47" height="44" viewBox="0 0 47 44" fill="none" xmlns="http://www.w3.org/2000/svg">
    <path d="M20.1 33.9C19.3667 33.2333 18.6667 32.5667 18 31.9C17.0667 31.0333 16.1333 30.1333 15.2 29.2C15.1 29.1 15.1 29.1 15.2 29C16.3333 27.7333 17.6333 26.6333 19.1 25.7C19.2 25.6 19.3 25.6 19.4 25.7C20.5 26.6 21.6 27.5 22.9 28C24.3 28.7 25.7 29.1 27.3 29.2C29.5 29.3333 31.6 28.9667 33.6 28.1C34.8667 27.5 36 26.7333 37 25.8C37.2 25.7 37.3 25.7 37.4 25.8C39.8 27.4 41.8 29.4 43.3 31.9C44.7 34 45.5 36.4 46.1 38.8C46.3 39.9333 46.4333 41.0333 46.5 42.1C46.5 42.3667 46.5 42.6667 46.5 43C46.5 43.1 46.5 43.1 46.3 43.1C46.0333 43.1 45.7667 43.1 45.5 43.1C36.9667 43.1667 28.4 43.2333 19.8 43.3C19.5 43.3 19.3 43.2 19.1 43C18.1 42 17 41 16.1 39.9C14.8 38.5 13.7 36.9 13.1 35C13.0333 34.7333 12.9667 34.4667 12.9 34.2C12.9 34 12.9 34 13.1 34C15.3 34 17.5 33.9667 19.7 33.9C19.7667 33.9 19.9 33.9 20.1 33.9Z"
          fill="black"/>
    <path d="M39.1 16.1C39.2 22.2 34.4 27 28.5 27.1C22.5 27.2 17.5 22.4 17.5 16.4C17.4 10.2 22.6 5.5 28.2 5.5C34.1 5.5 39 10.3 39.1 16.1Z"
          fill="black"/>
    <path d="M13.9 0C16.3 0 18.5 1.2 20.2 3.6C20.5333 4.13333 20.8 4.73333 21 5.4C21.1 5.5 21.1 5.6 21 5.7C18.4667 7.43333 16.7667 9.8 15.9 12.8C15.6333 13.6 15.4667 14.4667 15.4 15.4C15.4 15.6 15.4 15.6 15.1 15.7C12 16.3 9.4 15.3 7.4 12.9C6.3 11.8 5.8 10.4 5.6 8.9C5.3 6 6.3 3.7 8.4 1.8C9.9 0.599999 11.6 0 13.9 0Z"
          fill="black"/>
    <path d="M0 27.1C0 25.6333 0.233333 24.2 0.7 22.8C1.7 19.8 3.4 17.4 5.8 15.4C6 15.2667 6.2 15.1333 6.4 15C6.7 14.8 7 14.8 7.2 15C7.8 15.5333 8.46667 16 9.2 16.4C10.2 16.8667 11.2667 17.1667 12.4 17.3C13.2 17.4333 14 17.4333 14.8 17.3C15.1 17.3 15.4 17.5 15.5 17.9C15.6333 19.3667 16.0667 20.7667 16.8 22.1C17 22.5667 17.2667 23.0333 17.6 23.5C17.7 23.7 17.6 24.1 17.4 24.3C16.2 25.1 15.1 26.0333 14.1 27.1C13.9 27.3 13.7 27.4 13.4 27.3C13.3 27.3 13.2 27.3 13.1 27.2C12.1 26.2 11.0667 25.1667 10 24.1C9.26667 23.4333 8.53333 22.7333 7.8 22C7.8 22 7.7 21.9 7.6 21.9C7.3 21.9 7.1 22 6.8 22.2C5.4 23.6 4 25 2.6 26.4C2.26667 26.7333 1.93333 27.0667 1.6 27.4C1.4 27.6667 1.13333 27.8 0.799999 27.8C0.533333 27.7333 0.299999 27.7333 0.0999994 27.8C0.0333328 27.8 0 27.7333 0 27.6C0 27.4667 0 27.3 0 27.1Z"
          fill="black"/>
    <path d="M16.2 43.1C15.8 43.1 15.4667 43.0667 15.2 43C12.8667 42.6 10.8 41.6 9 40C7 38.2 5.6 36 4.8 33.5C4.66667 33.1 4.53333 32.7 4.4 32.3C4.3 32 4.2 31.9 4 31.9C2.73333 31.9667 1.46667 32 0.2 32C0.2 32 0.0999994 32 0.0999994 31.9C0.0999994 31.9 0.0999998 31.8 0.2 31.8C1.8 30.2 3.4 28.6 5 27C5.73333 26.2667 6.46667 25.5333 7.2 24.8C7.4 24.6 7.4 24.6 7.7 24.8C9.3 26.3333 10.9 27.9 12.5 29.5C13.2333 30.2333 13.9667 30.9333 14.7 31.6C14.7667 31.6667 14.8333 31.7667 14.9 31.9C14.8 31.9 14.7 31.9 14.7 31.9C13.4333 31.9 12.2 31.9 11 31.9C10.7 31.9 10.6 32 10.6 32.3C10.6 33.6 10.9 34.8 11.3 36C12 38 13.1 39.6 14.4 41.2C14.9 41.8 15.5 42.5 16.2 43.1Z"
          fill="black"/>
</svg>
