<svg width="39" height="34" viewBox="0 0 39 34" fill="none" xmlns="http://www.w3.org/2000/svg">
<path fill-rule="evenodd" clip-rule="evenodd" d="M0 4.96429C0 2.29512 2.18613 0.125 4.875 0.125H34.125C35.4732 0.125 36.5625 1.20628 36.5625 2.54464C36.5625 3.88301 35.4732 4.96429 34.125 4.96429H6.09375C5.42344 4.96429 4.875 5.50871 4.875 6.17411C4.875 6.83951 5.42344 7.38393 6.09375 7.38393H34.125C36.8139 7.38393 39 9.55405 39 12.2232V29.1607C39 31.8299 36.8139 34 34.125 34H4.875C2.18613 34 0 31.8299 0 29.1607V4.96429ZM33.4111 18.981C32.954 18.5272 32.334 18.2723 31.6875 18.2723C31.041 18.2723 30.421 18.5272 29.9639 18.981C29.5068 19.4348 29.25 20.0502 29.25 20.692C29.25 21.3337 29.5068 21.9491 29.9639 22.4029C30.421 22.8567 31.041 23.1116 31.6875 23.1116C32.334 23.1116 32.954 22.8567 33.4111 22.4029C33.8682 21.9491 34.125 21.3337 34.125 20.692C34.125 20.0502 33.8682 19.4348 33.4111 18.981ZM20.3976 33.1922V30.52C22.057 30.3533 23.38 29.8048 24.3666 28.8745C25.3533 27.9443 25.8466 26.7201 25.8466 25.2019C25.8466 24.1225 25.6224 23.223 25.1739 22.5033C24.7344 21.775 24.0617 21.1299 23.1557 20.5683C22.7072 20.2875 22.196 20.0066 21.6219 19.7258C21.0479 19.4362 20.4155 19.1422 19.7249 18.8439C18.6216 18.37 17.9534 17.8654 17.7202 17.33C17.5856 17.0492 17.5183 16.7157 17.5183 16.3296C17.5183 15.7416 17.6619 15.2633 17.9489 14.8948C18.2359 14.5262 18.6799 14.3419 19.2809 14.3419C19.8639 14.3419 20.3348 14.5701 20.6936 15.0264C21.0613 15.474 21.2452 16.1672 21.2452 17.1062H25.9139L25.8735 17.0009C25.9004 15.3511 25.4385 13.9952 24.4877 12.9334C23.5459 11.8715 22.2677 11.2221 20.6532 10.9852V8.1418H18.5005V10.9193C16.7784 11.0773 15.4015 11.6389 14.37 12.6043C13.3385 13.5608 12.8228 14.7851 12.8228 16.2769C12.8228 17.3739 13.038 18.2866 13.4686 19.015C13.9081 19.7434 14.5763 20.3796 15.4733 20.9237C15.9218 21.1958 16.433 21.4678 17.0071 21.7399C17.5811 22.0119 18.218 22.284 18.9176 22.556C19.9939 23.0123 20.6622 23.5257 20.9223 24.0961C21.0568 24.3945 21.1241 24.7719 21.1241 25.2282C21.1241 26.0268 20.855 26.5841 20.3169 26.9C20.0567 27.0667 19.7204 27.1501 19.3078 27.1501C18.8145 27.1501 18.3794 27.0492 18.0027 26.8473C17.626 26.6367 17.33 26.3076 17.1147 25.8601C16.8994 25.4213 16.7918 24.8465 16.7918 24.1356H12.177L12.1501 24.2015C12.1321 25.5354 12.3833 26.6543 12.9035 27.5582C13.4327 28.4533 14.1592 29.1466 15.0831 29.638C16.0159 30.1207 17.0654 30.4235 18.2314 30.5463V33.1922H20.3976Z" fill="#F4BF00"/>
</svg>
